<?xml version="1.0" encoding="utf-8"?>
<!-- Generator: Adobe Illustrator 24.0.3, SVG Export Plug-In . SVG Version: 6.00 Build 0)  -->
<svg version="1.0" xmlns="http://www.w3.org/2000/svg" xmlns:xlink="http://www.w3.org/1999/xlink" x="0px" y="0px"
	 viewBox="0 0 514.8 498.3" style="enable-background:new 0 0 514.8 498.3;" xml:space="preserve">
<style type="text/css">
	.st0{fill:#FFCE1F;}
	.st1{fill:#FFE380;}
	.st2{fill:#F4AF25;}
	.st3{fill:#FFFFFF;}
	.st4{fill:#2453FF;}
	.st5{fill:#FBDF7E;}
	.st6{fill:#303030;}
	.st7{fill:none;stroke:#000000;stroke-width:3.3626;stroke-linecap:round;stroke-linejoin:round;stroke-miterlimit:10;}
</style>
<g id="Layer_17">
	<g>
		<path class="st0" d="M51.7,242.3c4.3-98.7,8.5-132.1,8.5-132.1s-9.8-68.2,152-49.7c71.6,0.7,154,2.1,154,2.1s91.6-7.8,93,69.6
			S455,343,455,343s1.4,93.1-66,94.5l-209.8-5.4l-57.7-2c0,0-65.4-11.8-69.7-77.9S51.7,242.3,51.7,242.3z"/>
	</g>
</g>
<g id="Layer_20">
	<g>
		<path class="st1" d="M472.9,287.1l-11.8,26c0,0-8-1.4-9.9-3.1c-1.9-1.6-2.5-5.8-2.5-5.8l-6.4-4.5c0,0-19.4-2.7-27.4-7.6
			c-2.9-1.8-3.6-3.8-3.2-5.6c0.6-3.1,4.3-5.7,4.3-5.7c-7-6.6,1.2-13.6,1.2-13.6c-0.8-16.3,20.1-7.6,20.1-7.6s3,0,5.2-8.9
			c1.6-6.5,7.8-6.6,11-6.2c1.1,0.2,1.9,0.4,1.9,0.4s-0.6,7.6-1.2,12.4c-0.6,4.7,2.1,23.3,5.3,20c3.2-3.3,10.1-1.9,12.6,0.8
			C474.6,280.7,472.9,287.1,472.9,287.1z"/>
		<path class="st2" d="M461.2,314.6c-0.1,0-0.2,0-0.3,0c-1.4-0.3-8.6-1.6-10.6-3.4c-1.8-1.6-2.6-4.7-2.9-6l-5.6-4
			c-2.8-0.4-20-3.1-27.7-7.8c-3.9-2.4-4.3-5.2-3.9-7.2c0.5-2.4,2.3-4.4,3.6-5.6c-1.5-1.8-2.2-3.8-2.1-5.9c0.1-3.9,2.8-7,4-8.2
			c-0.1-4.1,1.2-7.1,3.8-8.9c5.6-3.9,15.5-0.6,17.9,0.3c0.6-0.4,2.3-1.8,3.7-7.6c1.4-5.5,6-8.2,12.6-7.3c1.2,0.2,2,0.4,2.1,0.4
			c0.7,0.2,1.1,0.9,1.1,1.6c0,0.1-0.6,7.7-1.2,12.4c-0.6,4.3,1.5,16.1,3.1,18.5c1.6-1.4,3.7-2.1,6.2-2.1c3.2,0.1,6.5,1.3,8.2,3.2
			c2.9,3.2,1.4,9.7,1.2,10.5c0,0.1,0,0.2-0.1,0.2l-11.8,26C462.3,314.2,461.8,314.6,461.2,314.6z M426.5,258.7c-2,0-3.9,0.4-5.3,1.3
			c-1.8,1.3-2.7,3.6-2.5,7c0,0.5-0.2,0.9-0.5,1.2c0,0-3.5,3-3.5,6.5c0,1.7,0.7,3.3,2.4,4.9c0.3,0.3,0.5,0.7,0.5,1.2
			c0,0.4-0.3,0.9-0.6,1.1c-0.9,0.6-3.3,2.7-3.7,4.8c-0.1,0.6-0.4,2.2,2.5,4.1c7.7,4.7,26.7,7.4,26.9,7.4c0.2,0,0.5,0.1,0.7,0.3
			l6.4,4.5c0.3,0.2,0.6,0.6,0.6,1c0.2,1.4,0.9,3.9,2,4.9c0.9,0.8,4.6,1.8,8,2.5l11.2-24.8c0.4-1.6,1-5.9-0.5-7.6
			c-1.2-1.3-3.7-2.2-6.1-2.2c-1.9,0-3.4,0.5-4.4,1.5c-0.8,0.8-1.9,1.1-2.9,0.6c-4-1.9-5.4-18.4-5-21.9c0.5-3.5,0.9-8.6,1.1-11
			c-0.1,0-0.3-0.1-0.5-0.1c-3.6-0.5-8.1,0-9.3,5c-2.3,9.3-5.7,10-6.7,10c-0.2,0-0.4,0-0.6-0.1C434.8,260,430.4,258.7,426.5,258.7z
			 M472.9,287.1L472.9,287.1L472.9,287.1z"/>
	</g>
</g>
<g id="Layer_1">
	<g>
		<path class="st3" d="M379.8,161c0-12.6,2.9-22.9,22.9-22.9c12.6,0,25,9.4,22.9,22.9c-2,12.5-10.2,22.9-22.9,22.9
			S379.8,173.6,379.8,161z"/>
	</g>
	<g>
		<path class="st1" d="M374.3,159.5c0-12.6,2.9-22.9,22.9-22.9c12.6,0,25,9.4,22.9,22.9c-2,12.5-10.2,22.9-22.9,22.9
			C384.5,182.4,374.3,172.2,374.3,159.5z"/>
		<path class="st2" d="M397.2,183.9c-13.4,0-24.4-10.9-24.4-24.4c0-12.7,3-24.4,24.4-24.4c7.7,0,15.3,3.4,19.9,8.8
			c3.9,4.5,5.4,10,4.5,15.9C419.2,174.2,409.4,183.9,397.2,183.9z M397.2,138.2c-17.9,0-21.4,7.8-21.4,21.4
			c0,11.8,9.6,21.4,21.4,21.4c8.3,0,18.9-5.7,21.4-21.6c0.8-5-0.5-9.6-3.8-13.4C410.7,141.1,404,138.2,397.2,138.2z"/>
	</g>
	<g>
		<path class="st1" d="M394.3,157.4c1.8-3.2,10.7-11.7,11.4-3.1s-4.5,14.5-4.5,14.5s-16.9-4.7-13.9-12.4
			C390.3,148.7,394.3,157.4,394.3,157.4z"/>
		<path class="st2" d="M401.2,170c-0.1,0-0.2,0-0.3,0c-0.5-0.1-11.6-3.3-14.4-9c-0.8-1.6-0.9-3.3-0.2-5c1-2.6,2.3-3.9,3.9-3.9
			c1.9,0,3.4,1.7,4.3,3.2c2.1-2.6,6.2-6.5,9.4-5.8c1.2,0.3,2.7,1.3,3,4.7c0.7,9-4.6,15.1-4.8,15.4C401.9,169.8,401.6,170,401.2,170z
			 M390.2,154.4C390.2,154.4,390.2,154.4,390.2,154.4c-0.4,0-1.1,0.7-1.8,2.4c-0.4,1.1-0.4,2.1,0.2,3.1c1.8,3.6,8.9,6.5,12.2,7.5
			c1.2-1.6,4.3-6.5,3.7-13.1c-0.1-0.9-0.3-2.5-1.2-2.6c-2.1-0.5-6.7,4-8,6.2c-0.2,0.4-0.6,0.6-1.1,0.6c-0.4,0-0.8-0.3-1-0.7
			C392.6,156.5,391.1,154.4,390.2,154.4z"/>
	</g>
	<g>
		<path class="st1" d="M448.8,304.2c0,0,5.6-19.7,8.5-25.5"/>
		<path class="st2" d="M448.8,305.7c-0.1,0-0.3,0-0.4-0.1c-0.8-0.2-1.3-1.1-1-1.9c0.2-0.8,5.7-19.9,8.6-25.8c0.4-0.7,1.3-1.1,2-0.7
			c0.7,0.4,1.1,1.3,0.7,2c-2.8,5.6-8.3,25.1-8.4,25.3C450.1,305.3,449.5,305.7,448.8,305.7z"/>
	</g>
	<g>
		<path class="st3" d="M453.5,246.6c-3.2,2-4.6,4.1-5.1,7.3c-1.2,7.3-5.2,12.6-10.5,13.4c-5.2,0.8-8.1-4.7-10.6-2.1
			c-2.5,2.6-5.1,6.2-5.1,8.9c0,2.7-2.6,2.5-1.2,6.1c0.7,1.8-3.5,5-7.8,7.7c0.6-3.1,4.5-7.6,4.5-7.6c-7-6.6,1.4-12.5,1.4-12.5
			c-3.1-15.6,18.3-6.4,18.3-6.4s4.3-0.5,6.6-9.4C445.8,245.6,450.5,245.3,453.5,246.6z"/>
	</g>
</g>
<g id="Layer_16">
	<g>
		<path class="st1" d="M470.5,111.2c0,0-29.5,9.7-37.7,11.1c-0.8,0.1-1.6,0.2-2.2,0.2c-6.2,0.1-6.8-4.8-6.8-4.8s-7.5-28.8-9.1-32.7
			c-1.6-3.8,7.3-5.6,7.3-5.6s4.8-1.6,11-3.8c10.7-3.6,25.9-8.7,29.3-9.3c5.4-1,7.5,9.7,7.5,9.7s4.6,12.7,6.9,22.8
			C478.8,108.8,470.5,111.2,470.5,111.2z"/>
		<path class="st2" d="M430.4,124c-5.8,0-7.9-3.9-8.2-6.1c-2.6-10-7.8-29.5-9-32.4c-0.5-1.1-0.4-2.2,0.1-3.2
			c1.5-2.9,6.8-4.2,8.1-4.5c0.7-0.2,5.2-1.8,11-3.8c16.8-5.7,26.8-8.9,29.5-9.4c5.4-1,8.3,6.2,9.2,10.8c0.5,1.3,4.8,13.3,6.9,22.9
			c2.4,10.9-6.3,14-7,14.3l0,0c-1.2,0.4-29.7,9.7-37.9,11.2c-0.8,0.1-1.6,0.2-2.5,0.2C430.5,124,430.5,124,430.4,124z M462.9,67.7
			c-0.1,0-0.3,0-0.4,0c-2.5,0.5-12.9,3.8-29.1,9.3c-6.3,2.1-11,3.8-11,3.8c-0.1,0-0.1,0-0.2,0.1c-2.2,0.4-5.5,1.6-6.2,2.9
			c-0.1,0.2-0.1,0.4,0,0.7c1.6,3.9,8.8,31.7,9.1,32.9c0,0.1,0,0.1,0,0.2c0.1,0.4,0.7,3.5,5.3,3.6c0,0,0.1,0,0.1,0
			c0.7,0,1.3-0.1,2-0.2c8.1-1.4,37.2-11,37.5-11c0,0,0,0,0,0c0.3-0.1,6.9-2.2,5-10.8c-2.2-9.9-6.8-22.5-6.8-22.6
			c0-0.1,0-0.2-0.1-0.2C467.8,73.9,465.9,67.7,462.9,67.7z"/>
	</g>
	<g>
		<path class="st1" d="M459.5,78.1c0,0-6.6,23-11.4,24.6c-4.8,1.6-22.3-10.1-22.3-10.1L414.6,85"/>
		<path class="st2" d="M447.1,104.4c-6.2,0-19.4-8.6-22.1-10.5l-11.2-7.7c-0.7-0.5-0.9-1.4-0.4-2.1c0.5-0.7,1.4-0.9,2.1-0.4
			l11.2,7.7c7,4.7,18.1,10.9,20.9,9.9c2.5-0.8,7.4-12.9,10.4-23.6c0.2-0.8,1.1-1.3,1.9-1c0.8,0.2,1.3,1.1,1,1.9
			c-1.6,5.6-7.2,23.9-12.4,25.6C448.2,104.3,447.7,104.4,447.1,104.4z"/>
	</g>
	<g>
		<path class="st3" d="M433.3,120.8c5.6-2.5,19.2-10.1,28.3-12.2c11.2-2.7,11.2-9,11.2-9s-6.2-20.2-7.6-24.1
			c-1.4-3.9-6.3-3.5-6.3-3.5s-19.4,7.7-22,7c-1-0.3-2.1-0.9-3.5-2c10.5-3.4,24.8-8.4,28.2-9c5.3-0.9,7.3,9,7.3,9s4.5,11.8,6.7,21.1
			c2.2,9.4-5.9,11.6-5.9,11.6"/>
	</g>
</g>
<g id="Layer_13">
	<g>
		<path class="st1" d="M340.8,110c-0.3,9.5-4.4,10.2-6.1,12.3c-1.7,2-19.1-1-19.1-1l-16.8,13.4l-1.6,1.3l5.8-14.3
			c0,0-13.6,0-22.1-1.7c-8.5-1.7-8.2-14.3-8.2-28.3S283.1,78,289,78c0,0,2.2,0.5,5.1,1.2c4.3,1,10.2,2.2,12.7,2.2c4.2,0,16-2,23.8-2
			c7.9,0,10.2,8.2,10.2,8.2S341.1,100.5,340.8,110z"/>
		<path class="st2" d="M297.1,137.5c-0.3,0-0.6-0.1-0.9-0.3c-0.5-0.4-0.8-1.1-0.5-1.8l5-12.3c-4.2-0.1-13.7-0.4-20.2-1.7
			c-9.4-1.9-9.4-14.8-9.4-28.5l0-1.3c0-4.9,1.3-8.7,3.8-11.3c3.9-3.9,9.8-3.9,13.7-3.9l0.4,0c0.1,0,0.2,0,0.4,0c0,0,2.2,0.5,5,1.2
			c6.2,1.4,10.6,2.2,12.4,2.2c1.7,0,4.7-0.4,8.3-0.8c5.1-0.6,10.9-1.3,15.5-1.3c7.1,0,10.7,6.1,11.7,9.3c0,0.1,0.1,0.3,0.1,0.4
			c0,0.1,0.3,13.1,0,22.6l0,0c-0.3,8.2-3.3,10.6-5.3,12.2c-0.5,0.4-0.9,0.7-1.2,1c-1.5,1.8-8.2,1.6-19.9-0.4L298,137.1
			C297.8,137.4,297.4,137.5,297.1,137.5z M288.1,79.5c-3.6,0-8.2,0.1-11.2,3c-1.9,1.9-2.9,5-2.9,9.1l0,1.3c0,13,0,24.1,7,25.5
			c8.3,1.7,21.7,1.7,21.9,1.7c0.5,0,1,0.2,1.2,0.7c0.3,0.4,0.3,0.9,0.1,1.4l-3.7,9l14-11.1c0.3-0.3,0.8-0.4,1.2-0.3
			c7.4,1.3,16.2,2.2,17.8,1.4c0.5-0.5,1-0.9,1.5-1.4c1.8-1.4,4-3.1,4.2-9.9c0.3-8.7,0-20.5,0-22.2c-0.4-1.1-2.6-6.9-8.7-6.9
			c-4.4,0-10.1,0.7-15.2,1.3c-3.7,0.4-6.8,0.8-8.7,0.8c-2.1,0-6.5-0.8-13-2.2c-2.4-0.6-4.3-1-4.9-1.2l-0.2,0
			C288.4,79.5,288.3,79.5,288.1,79.5z M333.6,121.2L333.6,121.2L333.6,121.2z M340.8,110L340.8,110L340.8,110z"/>
	</g>
	<g>
		<path class="st1" d="M153.4,179c0,11.6-10.2,13.3-14,13.7c-3.8,0.3-15-0.7-17.4-0.7s3.4,10.6,3.4,10.8c0,0.3,8.9,5.9,2.4,5.9
			c-3.6,0-9.3-3.5-14.7-7.1c-4.4-2.8-8.5-5.7-11.3-6.6c-6.2-2.1-27.7-1-39.3-2.1c-11.6-1-23.9-9.5-23.2-32
			c0.6-19.7,18-21.6,22.3-21.7c0.6,0,0.9,0,0.9,0s49.5,1.2,70.3,2.2C153.9,142.5,153.4,167.4,153.4,179z"/>
		<path class="st2" d="M127.8,210.2c-3.9,0-9.6-3.5-15.5-7.3l-1.3-0.8c-3.8-2.5-7.4-4.8-9.6-5.6c-3.5-1.2-12.8-1.3-21.8-1.4
			c-6.1-0.1-12.4-0.2-17.1-0.6c-6.8-0.6-12.9-3.6-17.2-8.5c-5.2-5.9-7.7-14.4-7.4-25c0.6-21.2,19.9-23,23.7-23.2c0.6,0,1,0,1,0
			c0.5,0,49.7,1.2,70.4,2.2c21.9,1.1,21.9,26.2,21.8,38.3l0,0.7c0,8.7-5.6,14.3-15.4,15.1c-2.6,0.2-8.2-0.1-12.8-0.4
			c-1.5-0.1-2.8-0.2-3.7-0.2c0.3,1.1,1.1,3.2,3.2,7.5c0.2,0.4,0.4,0.7,0.5,0.9c0.1,0.1,0.3,0.2,0.4,0.3c2.8,2.2,5.1,4.1,4.4,6.1
			C131,210.2,128.6,210.2,127.8,210.2z M62.5,140.8c-0.1,0-0.4,0-0.7,0C57,141,41.5,143,41,161.1c-0.8,26.4,16.5,30,21.8,30.4
			c4.6,0.4,10.8,0.5,16.9,0.6c9.7,0.1,18.8,0.2,22.7,1.6c2.7,0.9,6.4,3.3,10.3,5.9l1.3,0.8c3.9,2.6,10.5,6.8,13.8,6.8
			c0.2,0,0.3,0,0.4,0c-0.5-0.5-1.3-1.3-2.9-2.5c-0.8-0.6-1.2-0.9-1.3-1.4c-0.1-0.2-0.2-0.5-0.4-0.9c-3.4-6.8-4.2-9.5-3.3-10.9
			c0.4-0.6,1-0.9,1.7-0.9c0.9,0,2.7,0.1,5,0.3c4.2,0.3,10,0.6,12.3,0.4c5.8-0.5,12.6-3.1,12.6-12.2l0-0.7c0-12,0-34.4-19-35.3
			c-20.6-1-69.8-2.2-70.3-2.2C62.6,140.8,62.6,140.8,62.5,140.8z"/>
	</g>
	<g>
		<path class="st1" d="M203,91.3c-0.9,0.4-1.8,0.8-2.8,1.3c-11.2,5.1-53.3,6.8-60.1,2.4c-6.8-4.4-5.8-15-7.1-32.4
			c-0.3-4.5,3.9-8.3,10.4-11.4c18.4-8.8,54.8-12.2,54.8-12.2c8.8-1,8.5,4.8,8.5,4.8s5.2,26.6,5.5,34.1
			C212.4,84.8,211.6,87.1,203,91.3z"/>
		<path class="st2" d="M161.1,99.1c-10.2,0-18.9-0.9-21.8-2.8c-6.1-4-6.6-12-7.2-24.2c-0.2-2.8-0.3-6-0.6-9.4
			c-0.4-4.8,3.4-9.1,11.2-12.8c18.4-8.8,53.8-12.2,55.3-12.3c3.7-0.4,6.5,0.2,8.2,1.9c1.7,1.6,1.9,3.6,1.9,4.2
			c0.5,2.4,5.2,26.9,5.5,34.2c0.3,7.5-0.9,10.3-10,14.8c-0.9,0.4-1.8,0.9-2.8,1.3C193.8,97.2,176,99.1,161.1,99.1z M200.1,40.4
			c-0.6,0-1.2,0-1.8,0.1c-0.4,0-36.4,3.4-54.3,12c-6.6,3.1-9.8,6.5-9.5,9.9c0.3,3.4,0.4,6.6,0.6,9.4c0.6,11.6,1,18.7,5.9,21.8
			c6.4,4.1,48,2.4,58.7-2.5c1-0.5,1.9-0.9,2.7-1.3c0,0,0,0,0,0c8.3-4.1,8.6-6,8.3-11.9c-0.3-7.3-5.5-33.6-5.5-33.9
			c0-0.1,0-0.3,0-0.4c0,0,0-1.2-1-2.1C203.3,40.8,201.9,40.4,200.1,40.4z"/>
	</g>
	<g>
		<path class="st1" d="M396.4,200.5c0,0-3.8,8.1-8.6,18.2c-2.1,4.4-4.4,9.2-6.6,14c-3.2,6.9-6.4,13.5-8.6,18.3c-0.9,2-1.7,3.7-2.3,5
			c-5.1,11.4-13.8,5.2-13.8,5.2s-30.8-11.7-41.8-17c-11-5.4-8-13.5-8-13.5l8.4-21.6l0.7-1.7l11.3-29.2l66.7,21.6L396.4,200.5z"/>
		<path class="st2" d="M361.8,264.3c-2.9,0-5.3-1.4-6-1.8c-2.7-1-31.1-11.8-41.7-17c-9.6-4.7-9.9-12.1-8.8-15.4l20.4-52.5
			c0.3-0.7,1.1-1.1,1.9-0.9l69.3,22.4c0.4,0.1,0.7,0.4,0.9,0.8c0.2,0.4,0.2,0.8,0,1.2l-8.6,18.1c-2.1,4.4-4.4,9.2-6.6,14
			c-3.1,6.6-6.3,13.3-8.6,18.3c-0.9,2-1.7,3.7-2.3,5c-1.9,4.1-4.4,6.6-7.5,7.5C363.3,264.2,362.5,264.3,361.8,264.3z M328,180
			l-19.8,51.2c-0.1,0.2-2.3,7,7.3,11.6c10.8,5.3,41.3,16.8,41.6,17c0.1,0,0.2,0.1,0.3,0.2c0,0,2.9,2,6,1.2c2.2-0.6,4.1-2.6,5.5-5.8
			c0.6-1.3,1.4-3,2.3-5c2.3-5,5.5-11.8,8.6-18.3c2.2-4.7,4.5-9.5,6.6-14l7.9-16.6L328,180z"/>
	</g>
	<g>
		<path class="st1" d="M372.5,250.9c-0.9,2-1.7,3.7-2.3,5c-5.1,11.4-13.8,5.2-13.8,5.2s-30.8-11.7-41.8-17c-11-5.4-8-13.5-8-13.5
			l8.4-21.6l0.7-1.7c0.6,0.2,1.2,0.4,1.8,0.6c6.5,2.3,14.2,6.2,18,12.5c7.3,12.1,5,14,15.8,16C360.3,238.2,368.7,243.1,372.5,250.9z
			"/>
		<path class="st2" d="M361.8,264.3c-2.9,0-5.3-1.4-6-1.8c-2.7-1-31.1-11.8-41.7-17c-12-5.9-8.8-15.3-8.8-15.4l9-23.3
			c0.3-0.7,1.1-1.1,1.9-0.9c0.6,0.2,1.2,0.4,1.8,0.6c6.3,2.2,14.7,6.3,18.8,13.1c1.9,3.1,3.1,5.5,4.1,7.5c2.8,5.5,3.3,6.4,10.6,7.9
			c10.3,2,18.5,7.6,22.2,15.2c0.2,0.4,0.2,0.9,0,1.3c-0.9,2-1.7,3.7-2.3,5c-1.9,4.1-4.4,6.6-7.5,7.5
			C363.3,264.2,362.5,264.3,361.8,264.3z M316.6,209.2l-8.5,21.9c-0.1,0.2-2.3,7,7.3,11.6c10.8,5.3,41.3,16.8,41.6,17
			c0.1,0,0.2,0.1,0.3,0.2c0,0,2.9,2,6,1.2c2.2-0.6,4.1-2.6,5.5-5.8c0.5-1.1,1.2-2.6,2-4.4c-3.5-6.5-10.7-11.2-19.8-13
			c-8.4-1.6-9.6-3.3-12.7-9.4c-1-1.9-2.2-4.3-4-7.3c-3.7-6.1-11.4-9.8-17.3-11.9C316.9,209.3,316.8,209.3,316.6,209.2z"/>
	</g>
	<g>
		<path class="st3" d="M204,90c-0.9,0.4-1.8,0.8-2.8,1.2c-11.2,4.7-53.3,6.3-60.1,2.2c-6.8-4.1-5.8-13.9-7.1-30
			c-0.3-4.2,3.9-7.7,10.4-10.5c-2.1,4.8-4.1,10.3-3.8,13.8c0.5,7.5,0.1,18,1.8,19.6c1.7,1.6,29.1,6.3,46.8,2.9
			C194.8,88.2,199.8,88.8,204,90z"/>
	</g>
	<g>
		<path class="st3" d="M339.1,108.9c-0.3,8.9-4.3,9.5-5.9,11.4c-1.6,1.9-18.4-0.9-18.4-0.9L301,130.9l9.9-14.2c0,0,8.5-0.2,13.9,0
			c5.3,0.2,9.3-4,9.3-4s0-17.5,0-23.2c0-5.7-8.1-4.8-15.6-4.4c-7.5,0.4-10.9,1.9-17.6,0c-3.4-1-5.5-3-6.8-4.7c4.2,0.9,9.8,2,12.2,2
			c4,0,15.4-1.9,23-1.9c7.6,0,9.9,7.6,9.9,7.6S339.4,100.1,339.1,108.9z"/>
	</g>
	<g>
		<path class="st3" d="M390.4,200.1c-17.3-3.4-43.1-9.6-51.2-11.3c-11.6-2.4-11.9,8.9-14.9,13.9c-1.2,2.1-1.3,3.2-4.2,4.5
			c-0.6-0.2-1.9-0.7-2.5-0.9l10.4-26.2L390.4,200.1z"/>
	</g>
</g>
<g id="Layer_22">
	<g>
		<path class="st3" d="M114.2,200.4c-4.4-2.7-8.5-5.4-11.3-6.3c-6.2-2-27.7-1-39.3-2c-11.6-1-23.9-9.1-23.2-30.6
			c0.6-18.8,18-20.6,22.3-20.8c-5.3,4.5-11.1,10.4-11.9,15.2c-1.5,9.2-0.4,18.7,2.6,22c3,3.2,14,10.1,36,10.1
			C103.4,188.1,110.7,195.2,114.2,200.4z"/>
	</g>
	<g>
		<circle class="st3" cx="73.8" cy="166" r="7"/>
	</g>
	<g>
		<circle class="st3" cx="98.7" cy="168" r="7"/>
	</g>
	<g>
		<circle class="st3" cx="127.2" cy="169.8" r="7"/>
	</g>
</g>
<g id="Layer_19">
	<g>
		<path class="st1" d="M161.7,60.5c0,0,1.4,20.7,3.2,21.7s16.8-7.5,17.7-9.6s1.6-4.6-4.3-7.2c-5.9-2.6-11.7-4.9-11.7-4.9"/>
		<path class="st2" d="M165.3,83.8c-0.5,0-0.8-0.1-1.2-0.3c-0.7-0.4-2.4-1.4-3.9-22.9c-0.1-0.8,0.6-1.5,1.4-1.6
			c0.8-0.1,1.5,0.6,1.6,1.4c0.6,8.3,1.7,18,2.5,20.4c3-0.7,14.3-7,15.5-8.8c0.6-1.5,1.3-3.1-3.6-5.2c-5.9-2.6-11.6-4.9-11.7-4.9
			c-0.8-0.3-1.1-1.2-0.8-1.9c0.3-0.8,1.2-1.1,1.9-0.8c0.1,0,5.9,2.4,11.8,4.9c6.8,3,6.3,6.5,5.1,9.2c-1.1,2.5-12.5,8.8-16.6,10.1
			C166.5,83.6,165.9,83.8,165.3,83.8z M166,81.1L166,81.1L166,81.1z"/>
	</g>
</g>
<g id="Layer_18">
	<g>
		<circle class="st1" cx="345.5" cy="205.1" r="9.9"/>
		<path class="st2" d="M345.5,216.5c-6.3,0-11.4-5.1-11.4-11.4s5.1-11.4,11.4-11.4s11.4,5.1,11.4,11.4S351.7,216.5,345.5,216.5z
			 M345.5,196.8c-4.6,0-8.4,3.7-8.4,8.4s3.7,8.4,8.4,8.4s8.4-3.7,8.4-8.4S350.1,196.8,345.5,196.8z"/>
	</g>
	<g>
		<path class="st1" d="M387.7,218.6c-2.1,4.4-4.4,9.2-6.6,14L354,222.2c8.8-12.5,18.5-1.8,18.5-1.8
			C377.6,215.1,383.6,216.5,387.7,218.6z"/>
		<path class="st2" d="M381.1,234.1c-0.2,0-0.4,0-0.5-0.1l-27.1-10.3c-0.4-0.2-0.8-0.5-0.9-1c-0.1-0.4-0.1-0.9,0.2-1.3
			c3-4.2,6.4-6.4,10.2-6.7c4.3-0.3,7.8,2.2,9.6,3.7c4.3-3.8,9.9-4.2,15.9-1.1c0.7,0.4,1,1.2,0.7,2c-2.1,4.4-4.4,9.2-6.6,14
			C382.3,233.8,381.7,234.1,381.1,234.1z M356.5,221.6l23.9,9.1c1.8-3.8,3.6-7.7,5.4-11.3c-4.8-2-8.8-1.3-12.1,2.1
			c-0.3,0.3-0.7,0.5-1.1,0.5c0,0,0,0,0,0c-0.4,0-0.8-0.2-1.1-0.5c0,0-3.7-4-8.3-3.8C360.8,217.8,358.6,219.1,356.5,221.6z"/>
	</g>
</g>
<g id="Layer_5">
	<g>
		<path class="st4" d="M301.1,258.7c0,0,48.3,23.3,63.7,48.1c18.2,29.3,31.4,77.4,33.1,88c1.7,10.7,5.3,60-28.3,61.1
			s-43.4-2.2-43.4-2.2l-21-7.6l-125.9-14l-3.4-49.9c0,0-28.3,43.7-54.4,47.9s-68.1-3.6-36.2-69.2s60.8-70.1,60.8-70.1
			s23.8-44.9,73.8-32.8C270,270.1,301.1,258.7,301.1,258.7"/>
		<path d="M356.5,457.6c-23.1,0-30.5-2.4-30.9-2.6l-20.9-7.5l-125.7-14c-0.7-0.1-1.3-0.7-1.3-1.4l-3.1-45.6
			c-7.5,10.7-30.7,41.4-52.9,45c-7.3,1.2-32.1,3.8-43.8-11.9c-9.2-12.4-7.2-32.4,6-59.5c29.5-60.5,56.3-69.6,61.2-70.7
			c1.5-2.5,7.4-12.2,18.2-20.8c11.4-9.1,30.5-18.5,57-12.2c25.6,6.2,46.1,6.1,58.7,4.9c13.7-1.3,21.5-4.1,21.6-4.1
			c0.4-0.1,0.8-0.1,1.2,0.1c2,1,48.8,23.7,64.3,48.7c18.1,29.2,31.5,77.3,33.3,88.6c0.1,0.4,5.4,35.4-9.2,53.1
			c-5.1,6.2-12,9.5-20.5,9.7C364.7,457.6,360.4,457.6,356.5,457.6z M180.6,430.7l124.6,13.9c0.1,0,0.2,0,0.3,0.1l21,7.6
			c0.1,0,10.1,3.2,42.9,2.2c7.6-0.3,13.8-3.2,18.3-8.7c13.7-16.6,8.6-50.4,8.6-50.7c-1.8-11.1-15-58.6-32.9-87.5
			c-14.1-22.8-57.1-44.6-62.5-47.3c-4.7,1.6-34.7,10.4-81.4-0.9c-20.2-4.9-38.5-1-54.3,11.5c-11.8,9.4-17.8,20.4-17.8,20.5
			c-0.2,0.4-0.6,0.7-1.1,0.8c-0.3,0-28.6,5.4-59.7,69.3c-12.7,26-14.8,45-6.3,56.4c10.6,14.3,34,11.8,40.9,10.7
			c25.1-4.1,53.1-46.8,53.4-47.3c0.4-0.5,1-0.8,1.6-0.6c0.6,0.2,1.1,0.7,1.1,1.4L180.6,430.7z"/>
	</g>
</g>
<g id="Layer_15">
	<g>
		<path class="st3" d="M80.8,251.9c0,0-7.7,0.3-5.3-6.4c2.4-6.6,8.7-9,8.7-9h43.1c0,0,4.3-1.2,6.7,4.1s5.5,11.3,5.5,11.3L80.8,251.9
			z"/>
		<path d="M80.6,253.4c-1,0-4.4-0.2-6.2-2.6c-1.1-1.5-1.2-3.5-0.4-5.8c2.6-7.2,9.3-9.8,9.5-9.9c0.2-0.1,0.3-0.1,0.5-0.1h42.9
			c2-0.5,6.1,0,8.3,4.9c2.4,5.2,5.5,11.2,5.5,11.3c0.2,0.5,0.2,1,0,1.5c-0.3,0.4-0.8,0.7-1.3,0.7l0,0l-58.7,0
			C80.8,253.4,80.7,253.4,80.6,253.4z M84.5,238c-1.1,0.5-5.7,2.8-7.6,8c-0.5,1.4-0.5,2.4,0,3c0.8,1.1,3.1,1.4,3.9,1.3c0,0,0,0,0,0
			l56.3,0c-1.1-2.2-2.9-5.9-4.5-9.2c-1.8-3.9-4.7-3.3-5-3.2c-0.1,0-0.3,0.1-0.4,0.1H84.5z"/>
	</g>
	<g>
		<polyline class="st3" points="84.2,270 80.8,251.9 133.3,251.9 131,270 		"/>
		<path d="M84.2,271.5c-0.7,0-1.3-0.5-1.5-1.2l-3.4-18.1c-0.1-0.4,0-0.9,0.3-1.2c0.3-0.3,0.7-0.5,1.2-0.5h52.5
			c0.4,0,0.8,0.2,1.1,0.5c0.3,0.3,0.4,0.8,0.4,1.2l-2.3,18.1c-0.1,0.8-0.9,1.4-1.7,1.3c-0.8-0.1-1.4-0.9-1.3-1.7l2.1-16.4h-49
			l3.1,16.3c0.2,0.8-0.4,1.6-1.2,1.8C84.4,271.5,84.3,271.5,84.2,271.5z"/>
	</g>
	<g>
		<polyline class="st3" points="88.2,291.7 91.4,308.6 128.2,308.6 130.4,291.7 		"/>
		<path d="M128.2,310.1L128.2,310.1l-36.8,0c-0.7,0-1.3-0.5-1.5-1.2L86.8,292c-0.2-0.8,0.4-1.6,1.2-1.8c0.8-0.2,1.6,0.4,1.8,1.2
			l2.9,15.7l34.2,0l2.1-15.6c0.1-0.8,0.9-1.4,1.7-1.3c0.8,0.1,1.4,0.9,1.3,1.7l-2.2,16.9C129.5,309.6,128.9,310.1,128.2,310.1z"/>
	</g>
	<g>
		<path class="st3" d="M84.1,236.5c0,0,4.1-10.9,7.2-10.6c3.1,0.2,27.8,0,27.8,0s5.4,0.6,8.1,10.6H84.1z"/>
		<path d="M127.3,238H84.1c-0.5,0-1-0.2-1.2-0.6s-0.3-0.9-0.2-1.4c1.4-3.6,4.9-11.9,8.7-11.6c3,0.2,27.5,0,27.7,0c0.1,0,0.1,0,0.2,0
			c0.3,0,6.5,0.8,9.4,11.7c0.1,0.4,0,0.9-0.3,1.3C128.2,237.8,127.7,238,127.3,238z M86.4,235h38.9c-2.3-6.6-5.7-7.5-6.1-7.6
			c-2.1,0-24.8,0.2-27.8,0C90.3,227.5,88.1,230.9,86.4,235z"/>
	</g>
	<g>
		<polygon class="st5" points="131,270 128.3,291.7 88.2,291.7 84.2,270 		"/>
	</g>
</g>
<g id="hand">
	<g>
		<path d="M325.8,397.4c-0.7,0-1.3-0.5-1.5-1.2c-0.1-0.3-6.4-34.8-16.2-52.5c-0.4-0.7-0.1-1.6,0.6-2c0.7-0.4,1.6-0.1,2,0.6
			c10.1,18.2,16.3,52,16.6,53.4c0.1,0.8-0.4,1.6-1.2,1.7C326,397.4,325.9,397.4,325.8,397.4z"/>
	</g>
	<g>
		<path d="M353.9,403.6c-0.1,0-0.2,0-0.3,0l-14.7-2.8c-0.8-0.2-1.3-0.9-1.2-1.8c0.2-0.8,0.9-1.3,1.8-1.2l14.7,2.8
			c0.8,0.2,1.3,0.9,1.2,1.8C355.2,403.1,354.6,403.6,353.9,403.6z"/>
	</g>
	<g>
		<path class="st3" d="M144.3,249.2c0,0-15.1,6-14.6,18.7c0.5,12.7,1,16.9,1,16.9s-3.5,15.4-2.5,23.8H93.4c0,0,0.5-8.4-3.7-9.9
			c0,0,4.7-6.7-1.7-12.7c0,0,2.2-6-1.7-11.4c0,0,1.5-11.7-5.7-11.7s-11.7,5-8.2,14.9c0,0-3,10.4,2,12.7c0,0-2.7,8.4,3,10.4
			c0,0-1.5,15.4,9.9,23.6c11.4,8.2,11.4,8.2,11.4,8.2L84.5,362c0,0,27.3,36.5,55.1-6c0,0,0.5-27.1,2.5-35.5c2-8.4,6.5-21.6,3.7-34.5
			c-2.7-12.9-2.5-19.9-0.5-25.1S151.5,244.9,144.3,249.2z"/>
		<path d="M110.4,378.1c-15.6,0-26.7-14.6-27.2-15.2c-0.3-0.4-0.4-1-0.1-1.6l13.6-28.2l-10.4-7.5c-10.3-7.4-10.7-20-10.6-23.9
			c-4-2.1-3.9-7.3-3.2-10.7c-4.1-3.1-2.4-11.1-1.8-13.3c-2.1-6.5-0.8-10.3,0.6-12.4c1.9-2.6,5.1-4.1,9.1-4.1c2,0,3.7,0.7,4.9,2.1
			c2.7,3.1,2.5,8.8,2.4,10.6c3.1,4.6,2.4,9.4,1.9,11.4c4.3,4.5,3.5,9.5,2.1,12.5c2.6,2.1,3.1,6.6,3.2,9h31.6
			c-0.4-8.2,2.2-20.5,2.6-22.4c-0.1-1.1-0.5-5.7-1-16.7c-0.2-5.7,2.4-11,7.7-15.3c3.5-2.9,7.1-4.5,7.8-4.8c0.9-0.6,3.4-2,5.1-0.5
			c2.2,1.8,1,6.1-2,13.9l-0.1,0.2c-2.1,5.4-1.9,12.6,0.6,24.2c2.4,11.3-0.6,22.7-2.7,31.1c-0.4,1.5-0.7,2.8-1,4.1
			c-1.9,8.2-2.4,34.9-2.4,35.2c0,0.3-0.1,0.6-0.2,0.8c-9,13.7-19,20.9-29.6,21.2C111,378.1,110.7,378.1,110.4,378.1z M86.2,361.8
			c2.4,2.9,12.3,13.7,24.9,13.3c9.5-0.3,18.6-6.9,26.9-19.5c0.1-3.6,0.6-27.4,2.5-35.4c0.3-1.3,0.7-2.7,1-4.2
			c2.1-8.1,4.9-19.1,2.7-29.7c-2.6-12.2-2.7-19.9-0.4-25.9l0.1-0.2c2.2-5.8,3.2-9.4,2.8-10.5c-0.2,0-0.8,0.2-1.7,0.8
			c-0.1,0-0.1,0.1-0.2,0.1c-0.1,0.1-14.2,5.8-13.7,17.2c0.5,12.4,1,16.7,1,16.8c0,0.2,0,0.3,0,0.5c0,0.2-3.4,15.2-2.5,23.3
			c0,0.4-0.1,0.9-0.4,1.2c-0.3,0.3-0.7,0.5-1.1,0.5H93.4c-0.4,0-0.8-0.2-1.1-0.5s-0.4-0.7-0.4-1.1c0.1-1.9-0.2-7.5-2.7-8.4
			c-0.4-0.2-0.8-0.5-0.9-1c-0.1-0.4-0.1-0.9,0.2-1.3c0.2-0.2,3.9-5.7-1.5-10.7c-0.4-0.4-0.6-1.1-0.4-1.6c0.1-0.2,1.9-5.3-1.5-10
			c-0.2-0.3-0.3-0.7-0.3-1.1c0.2-1.7,0.4-6.7-1.6-8.9c-0.7-0.7-1.5-1.1-2.6-1.1c-2.1,0-5,0.5-6.7,2.8c-1.6,2.2-1.6,5.7-0.1,10.1
			c0.1,0.3,0.1,0.6,0,0.9c-0.7,2.4-1.9,9.5,1.2,10.9c0.7,0.3,1,1.1,0.8,1.8c0,0.1-2.2,7.1,2,8.5c0.7,0.2,1.1,0.9,1,1.6
			c0,0.1-1.2,14.6,9.3,22.2l11.4,8.2c0.6,0.4,0.8,1.2,0.5,1.9L86.2,361.8z M144.3,249.2L144.3,249.2L144.3,249.2z"/>
	</g>
</g>
<g id="Layer_25">
</g>
<g id="Layer_9">
	<g>
		<path class="st6" d="M121.2,323.1c0,0,0-8.7,9.7-7.9c9.7,0.8,103.6,9.7,103.6,9.7s6.5-0.5,7.9,9.2c1.3,9.7,15.4,70.3,15.4,70.3
			s4.8,7.1-13,5c-17.8-2.1-98.6-8.7-98.6-8.7s-7.6,1.1-10.2-11.7S121.2,323.1,121.2,323.1z"/>
		<path d="M250.5,411.3c-1.7,0-3.7-0.1-6-0.4c-17.3-2-94.7-8.4-98.4-8.7c-1.4,0.1-9,0.1-11.7-13c-2.6-12.7-14.6-65.3-14.7-65.8
			c0-0.1,0-0.2,0-0.3c0-0.2,0-4.2,3-7c2-1.9,4.8-2.7,8.3-2.4c9.4,0.8,99.7,9.3,103.5,9.7c2.8-0.1,8.1,1.8,9.3,10.5
			c1.3,9.2,14.3,65.7,15.3,69.9c0.6,1,1.1,2.9,0.1,4.5C258.1,410.3,255.2,411.3,250.5,411.3z M146.1,399.2c0,0,0.1,0,0.1,0
			c0.8,0.1,81,6.6,98.7,8.7c9.9,1.2,11.5-0.7,11.8-1.1c0.4-0.6-0.2-1.6-0.2-1.6c-0.1-0.1-0.2-0.3-0.2-0.5
			c-0.6-2.5-14.1-60.8-15.4-70.4c-1.1-8.2-6.2-7.9-6.2-7.9c-0.1,0-0.2,0-0.3,0c-0.9-0.1-94-8.9-103.6-9.7c-2.6-0.2-4.6,0.3-6,1.6
			c-1.8,1.6-2,4.1-2.1,4.7c0.8,3.5,12.1,53.3,14.7,65.7c2.3,11.2,8.3,10.6,8.6,10.6C146,399.2,146.1,399.2,146.1,399.2z"/>
	</g>
</g>
<g id="Layer_24">
	<g>
		
			<ellipse transform="matrix(0.9934 -0.1148 0.1148 0.9934 -40.4176 23.3391)" class="st3" cx="182.5" cy="362.6" rx="7.3" ry="8.5"/>
	</g>
</g>
<g id="Layer_6">
	<g>
		<path class="st3" d="M215.1,342.7L215.1,342.7c0,3.2,2.7,5.8,6,5.6c7-0.5,18-1,21.3,0.5c4.9,2.3-25.7-2.3-30.1,18.8
			c0,5.9,4.4,5.4,4.4,5.4s-5.7,10.4,5.6,11.9c0,0-2.2,6.4,6.3,6.6c8.5,0.1,25-4.9,26-2.2c1,2.7,1.7,9.8,2.8,13.5
			c1.1,3.7,45.6,42.6,50.8,44.4c5.2,1.9,17.9,6.5,17.9,6.5s19-17.2,13.1-54.4l-62.2-15.6c0,0-4.1-22.6-4.2-27.1
			c-0.1-4.5-2.9-17.9-17.4-19.7c-11.9-1.5-26.4-0.8-35.3,0.2C217.2,337.5,215.1,339.9,215.1,342.7z"/>
		<path d="M326.1,455.2c-0.2,0-0.3,0-0.5-0.1l-17.9-6.5c-4.1-1.5-25-19.7-27.4-21.8c-7-6.1-23.5-20.7-24.3-23.6
			c-0.6-1.9-1-4.6-1.5-7.2c-0.4-2.3-0.8-4.6-1.2-6c-1.4-0.4-6.9,0.5-10.9,1.2c-4.9,0.9-9.9,1.7-13.7,1.7c-3.3-0.1-5.7-1-7-2.9
			c-0.9-1.3-1.1-2.9-1-4c-3-0.7-5-2.1-6-4.2c-1.4-2.7-0.7-5.8,0-7.8c-0.6-0.2-1.1-0.5-1.7-1c-1.3-1.2-2-3.1-2-5.6c0-0.1,0-0.2,0-0.3
			c2.6-12.3,13.5-16.4,21.8-18c-3.2,0-7,0.2-11.4,0.5c-2,0.1-3.9-0.5-5.3-1.9c-1.4-1.3-2.3-3.2-2.3-5.2c0-3.6,2.7-6.6,6.2-7
			c8.9-1,23.6-1.7,35.7-0.2c17.9,2.2,18.7,20.4,18.7,21.1c0.1,3.8,3.3,21.6,4,25.9l61.3,15.4c0.6,0.1,1,0.6,1.1,1.2
			c5.9,37.6-12.8,55-13.6,55.7C326.8,455,326.4,455.2,326.1,455.2z M252,387c2.2,0,3.4,0.5,3.9,1.8c0.5,1.5,1,4,1.4,6.7
			c0.4,2.5,0.9,5.1,1.4,6.8c1.8,3.9,45.2,41.8,49.9,43.5l17,6.1c3.1-3.3,16.8-20,12.2-51.4l-61.2-15.3c-0.6-0.1-1-0.6-1.1-1.2
			c-0.2-0.9-4.1-22.7-4.3-27.3c0-0.7-0.7-16.4-16-18.2c-11.8-1.5-26.3-0.8-35,0.2c-2,0.2-3.6,2-3.6,4c0,1.1,0.5,2.2,1.3,3
			c0.8,0.8,1.9,1.2,3.1,1.1c11.9-0.9,19.3-0.7,22.1,0.7c1.1,0.5,1.5,1.2,1.4,2c-0.2,1.4-1.5,1.5-4.4,1.8
			c-6.9,0.7-23.1,2.2-26.2,16.5c0,1.5,0.4,2.6,1,3.2c0.7,0.7,1.7,0.6,1.7,0.6c0.5,0,1.1,0.2,1.4,0.7c0.3,0.5,0.3,1,0.1,1.5
			c-0.6,1.1-2,4.6-0.8,6.9c0.8,1.5,2.5,2.4,5.3,2.8c0.4,0.1,0.8,0.3,1.1,0.7s0.3,0.8,0.1,1.3c0,0-0.6,1.8,0.3,3
			c0.9,1.3,3,1.5,4.6,1.6c3.5,0.1,8.6-0.8,13.2-1.6C246.4,387.5,249.7,387,252,387z"/>
	</g>
</g>
<g id="Layer_10">
	<g>
		<path d="M216.6,374.5c-0.3,0-0.6-0.1-0.9-0.3c-0.7-0.5-0.8-1.4-0.4-2.1c0.4-0.6,11-15.3,30.5-13.9c0.8,0.1,1.4,0.8,1.4,1.6
			c-0.1,0.8-0.8,1.5-1.6,1.4c-17.8-1.3-27.7,12.5-27.8,12.7C217.6,374.3,217.1,374.5,216.6,374.5z"/>
	</g>
	<g>
		<path d="M222.2,386.4c-0.3,0-0.6-0.1-0.9-0.3c-0.7-0.5-0.8-1.4-0.3-2.1c0.4-0.5,8.9-12.1,26.4-15.2c0.8-0.1,1.6,0.4,1.7,1.2
			c0.1,0.8-0.4,1.6-1.2,1.7c-16.2,2.9-24.4,13.9-24.5,14C223.2,386.2,222.7,386.4,222.2,386.4z"/>
	</g>
</g>
<g id="Layer_3">
	<g>
		<path class="st3" d="M183.7,192c0,0,8.1,54.1,33.4,65.1c0,0,2.4,25.7,18.1,29.9s42.5-2.1,65.9-28.4c0,0-20.7-6.3-22.6-6.3
			c-1.8,0-11.8-17.9-7.1-23.4c4.7-5.5,11.8-14.4,11.8-14.4l-21-53.6l-75.6,22.1L183.7,192z"/>
		<path d="M244.9,289.8c-3.7,0-7.1-0.4-10.1-1.2c-6.9-1.8-12.5-7.9-16-17.5c-2.1-5.6-2.9-10.9-3.1-12.9
			c-25.1-12-33.1-63.7-33.4-65.9c0-0.2,0-0.5,0.1-0.7l2.9-8.9c0.2-0.5,0.5-0.8,1-1l75.6-22.1c0.7-0.2,1.5,0.2,1.8,0.9l21,53.6
			c0.2,0.5,0.1,1.1-0.2,1.5c-0.1,0.1-7.2,9-11.9,14.5c-0.8,1-1.1,2.7-0.8,5.1c0.9,6.4,5.6,14.6,7.1,15.8c3.1,0.4,18,4.9,22.6,6.3
			c0.5,0.1,0.9,0.5,1,1c0.1,0.5,0,1-0.3,1.4C283.2,281.1,261.4,289.8,244.9,289.8z M185.2,192.1c0.8,4.6,9.3,53.5,32.4,63.6
			c0.5,0.2,0.8,0.7,0.9,1.2c0,0.2,2.5,24.7,17,28.6c15.5,4.1,40.8-2.4,62.8-26.2c-9.1-2.8-18.7-5.5-19.9-5.6c-2.3,0-5.4-6.2-6.6-8.8
			c-2.1-4.6-5.1-12.9-1.6-17c3.9-4.6,9.5-11.5,11.2-13.7l-20.2-51.5l-73.6,21.5L185.2,192.1z M278.5,250.9
			C278.5,250.9,278.5,250.9,278.5,250.9C278.5,250.9,278.5,250.9,278.5,250.9z M278.5,250.9C278.5,250.9,278.5,250.9,278.5,250.9
			C278.5,250.9,278.5,250.9,278.5,250.9z"/>
	</g>
</g>
<g id="Layer_4">
	<g>
		<path d="M220.9,243.8c-1.4,0-3.1-0.3-4.5-1.7c-1.9-2-2.6-5.5-1.9-10.7c1.6-12.7-5.5-19.8-13.3-25.5c-8-5.9-22.6,2.4-22.8,2.5
			c-0.7,0.4-1.6,0.2-2-0.6c-0.4-0.7-0.2-1.6,0.6-2c0.7-0.4,16.5-9.3,26.1-2.3c8.2,6,16.3,14.1,14.5,28.3c-0.6,5.2,0.2,7.4,1.1,8.3
			c0.9,0.9,2.2,0.9,3.5,0.7c0.3,0,0.6-0.1,0.8-0.1c0.8,0,1.5,0.7,1.5,1.5s-0.7,1.5-1.5,1.5c-0.1,0-0.3,0-0.5,0
			C222,243.7,221.5,243.8,220.9,243.8z"/>
	</g>
	<g>
		<path d="M224.1,250.2c-0.8,0-1.5-0.7-1.5-1.5c0-0.8,0.7-1.5,1.5-1.5l0,0c0.1,0,9.1-0.1,11.5-5.6c0.3-0.8,1.2-1.1,2-0.8
			c0.8,0.3,1.1,1.2,0.8,2C235.1,250.1,224.6,250.2,224.1,250.2L224.1,250.2z"/>
	</g>
	<g>
		<path d="M242.4,206.6c-0.4,0-0.8-0.2-1.1-0.5c-3.3-3.5-7.7-4.8-13.1-3.9c-4.2,0.7-7.5,2.6-7.5,2.6c-0.7,0.4-1.6,0.2-2-0.6
			c-0.4-0.7-0.2-1.6,0.5-2c0.1-0.1,3.7-2.1,8.4-2.9c6.4-1.1,11.9,0.5,15.9,4.8c0.6,0.6,0.5,1.6-0.1,2.1
			C243.1,206.5,242.7,206.6,242.4,206.6z"/>
	</g>
	<g>
		<path d="M230.2,260.9c-4.3,0-8.8-0.8-13.7-2.4c-0.8-0.3-1.2-1.1-1-1.9c0.3-0.8,1.1-1.2,1.9-1c9.6,3.2,17.9,3,24.8-0.6
			c10.3-5.3,14-16.5,14-16.6c0.2-0.8,1.1-1.2,1.9-1c0.8,0.2,1.2,1.1,1,1.9c-0.2,0.5-4,12.5-15.5,18.3
			C239.6,259.9,235.1,260.9,230.2,260.9z"/>
	</g>
	<g>
		<path d="M242.4,274.1c-0.6,0-1.1-0.3-1.3-0.8l-6.7-13.7c-0.4-0.7-0.1-1.6,0.7-2c0.7-0.4,1.6-0.1,2,0.7l6.7,13.7
			c0.4,0.7,0.1,1.6-0.7,2C242.8,274.1,242.6,274.1,242.4,274.1z"/>
	</g>
	<g>
		<ellipse transform="matrix(0.9916 -0.1291 0.1291 0.9916 -26.6748 28.248)" cx="204.6" cy="219.9" rx="3.6" ry="5.4"/>
	</g>
	<g>
		<ellipse transform="matrix(0.9916 -0.1291 0.1291 0.9916 -26.3198 31.9995)" cx="233.7" cy="219.1" rx="3.6" ry="5.4"/>
	</g>
</g>
<g id="Layer_2">
	<g>
		<g>
			<path d="M269,230c3.4-3,8.1-8.1,8.1-13c0-5.5-3.8-8.9-7.3-8.9c-1.7,0-3,0.8-3.7,2.2c-0.3,0.5-0.6,1.3-1,2.2
				c-3.2,7.1-5.5,10.6-6.7,10.6c-2.4-0.2-3.1-8.5-3.4-12c-0.4-5.8-4-27.5-13.5-27.5c-0.8,0-1.6,0.2-2.4,0.5
				c-1.3,0.5-2.9,1.2-4.7,1.9c-7.1,3-17.8,7.6-28.4,7.6c-5.2,0-9.9-1.1-14-3.4c-0.2-0.1-0.5-0.2-0.7-0.2c-0.1,0-0.3,0-0.4,0.1
				c-0.4,0.1-0.7,0.4-0.9,0.7l-4.3,7.9l-3,0c-10.9-2.9-17.5-6.6-17.4-8c0,0,0.3-1.7,9.2-3.3c0.6-0.1,1-0.5,1.2-1.1
				c0.2-0.6,0-1.1-0.4-1.5c-1.3-1.1-4.7-4.6-5.5-6.8c-0.1-0.4-0.1-0.6-0.1-0.7c0,0,0.2-0.1,0.5-0.2l0.7-0.2
				c5.5-1.3,11.7-2.7,18.3-12.5c0.6-0.9,1.2-1.8,1.8-2.9c5.2-8.3,13.1-20.8,36-20.8c6.2,0,13.3,0.9,21,2.8c0.1,0,0.1,0,0.2,0
				c0.1,0,12.9,1.7,23.8,14.5c7.1,8.3,11.9,19.5,14.3,33.1c2.6,15.1,1.2,26-4.2,32.4C278,228.4,272.6,229.7,269,230z"/>
		</g>
		<g>
			<path d="M226.9,139.3v3c6.1,0,13.1,0.9,20.7,2.8c0.1,0,0.2,0,0.3,0.1c0,0,3.1,0.4,7.5,2.3c4,1.8,9.9,5.2,15.4,11.7
				c6.9,8.1,11.6,19,13.9,32.4c2.5,14.6,1.2,25.1-3.9,31.2c-2.2,2.6-4.8,4-7.3,4.9c2.7-3,5-6.8,5-10.6c0-6.4-4.5-10.4-8.8-10.4
				c-2.2,0-4.1,1.1-5.1,3c-0.3,0.6-0.6,1.3-1,2.2c-2.4,5.3-4.2,8.5-5.3,9.5c-0.8-1.1-1.4-4.6-1.9-10.4c-0.3-3.9-1.5-10.6-3.4-16.2
				c-2.9-8.4-6.8-12.7-11.6-12.7c-1,0-2,0.2-2.9,0.6c-1.4,0.5-2.9,1.2-4.8,2c-7,3-17.5,7.5-27.8,7.5c-5,0-9.4-1.1-13.3-3.2
				c-0.4-0.2-0.9-0.4-1.4-0.4c-0.3,0-0.6,0-0.8,0.1c-0.8,0.2-1.4,0.7-1.8,1.4l-3.9,7.1l-1.9,0c-6.8-1.8-13.4-4.5-15.6-6.2
				c1-0.5,3.1-1.3,7.4-2c1.1-0.2,2.1-1,2.4-2.1c0.3-1.1,0-2.3-0.9-3.1c-1.5-1.4-3.7-3.7-4.7-5.4c5.4-1.3,12.1-3,18.9-13.1
				c0.6-0.9,1.2-1.9,1.9-2.9c5.3-8.5,12.6-20.1,34.7-20.1L226.9,139.3 M226.9,139.3c-26.6,0-33.7,16.5-39,24.4
				c-6.6,9.7-12.6,10.8-18.1,12.1c-1.7,0.4-1.9,1.5-1.5,2.8c1.1,3.1,5.9,7.4,5.9,7.4c-27.6,4.7,8.3,14.2,8.3,14.2l4.1,0l4.7-8.7
				C196,194,201,195,206,195c13.5,0,26.9-7.1,33.6-9.6c0.7-0.2,1.3-0.4,1.9-0.4c7.9,0,11.6,19.8,12,26.1c0.5,6.8,1.3,13.1,4.7,13.4
				c0,0,0.1,0,0.1,0c3.4,0,7.5-10.6,9.1-13.7c0.5-0.9,1.4-1.4,2.4-1.4c2.5,0,5.8,2.6,5.8,7.4c0,6.8-10.8,14.5-10.8,14.5
				s0.9,0.1,2.4,0.1c7.1,0,27-3.2,20.5-40.6c-2.8-15.8-8.4-26.6-14.6-33.8c-11.5-13.5-24.8-15-24.8-15
				C240,140.1,233,139.3,226.9,139.3L226.9,139.3z"/>
		</g>
	</g>
</g>
<g id="Layer_23">
	<g>
		<path class="st3" d="M272.5,159.6c-5-5.2-16.4-11.8-26.3-13.6c-17.1-3-31.9,0.3-41,11.7c-6.8,8.5-14.4,22.7-20.4,24.4
			c-3,0.9-7.2-0.3-10.6-1.6c-0.4-1.3-0.2-2.4,1.4-2.8c5.2-1.3,10.9-2.3,17-11.8c6.2-9.5,14.8-31.5,56.7-21
			C249.3,145,261.7,146.5,272.5,159.6z"/>
	</g>
</g>
<g id="Layer_21">
	<g>
		<path d="M72.3,279.5c-0.3,0-0.7-0.1-1-0.3c-0.8-0.5-0.9-1.6-0.4-2.3c0.1-0.2,3.2-4.6,8.2-5.2c3-0.3,5.8,0.7,8.6,3.2
			c0.7,0.6,0.8,1.7,0.1,2.4s-1.7,0.8-2.4,0.1c-2-1.8-4-2.6-5.9-2.3c-3.4,0.4-5.8,3.7-5.8,3.8C73.4,279.3,72.8,279.5,72.3,279.5z"/>
	</g>
	<g>
		<path d="M74.3,292.2c-0.2,0-0.5,0-0.7-0.2c-0.8-0.4-1.2-1.4-0.8-2.2c0.1-0.2,2.6-5.6,7.6-6.9c2.9-0.8,6,0,9.2,2.2
			c0.8,0.5,0.9,1.6,0.4,2.3s-1.6,0.9-2.3,0.4c-2.3-1.6-4.4-2.2-6.3-1.7c-3.5,0.9-5.4,5.1-5.4,5.1C75.5,291.8,74.9,292.2,74.3,292.2z
			"/>
	</g>
	<g>
		<path class="st7" d="M78.3,296.3"/>
	</g>
	<g>
		<path d="M96.4,318.1c-0.6,0-1.3-0.4-1.5-1c-0.1-0.2-1.8-4.1-3.1-7.9c0-0.1,0-0.1,0-0.2c-1.2-5.8-3.2-9.2-5.8-10
			c-3.5-1-7.5,3.1-7.5,3.1c-0.6,0.7-1.7,0.7-2.4,0c-0.7-0.6-0.7-1.7,0-2.4c0.2-0.2,5.4-5.6,10.9-4c3.9,1.1,6.6,5.3,8.1,12.4
			c1.2,3.6,2.9,7.5,2.9,7.5c0.4,0.8,0,1.8-0.9,2.2C96.9,318,96.7,318.1,96.4,318.1z"/>
	</g>
</g>
</svg>
